<svg version="1.1" preserveAspectRatio="none" xmlns="http://www.w3.org/2000/svg" width="500" height="500" viewBox="0 0 500 500"><rect width="100%" height="100%" fill="#BE8A62" fill-opacity="1"/><svg viewBox="81.7827 116.4963 390.5217 291.4691" width="333" height="248.53730356085208" x="83.5px" y="125.7313px" xmlns="http://www.w3.org/2000/svg" xmlns:xlink="http://www.w3.org/1999/xlink" preserveAspectRatio="none"><defs></defs><style>.companyName {fill:#F3F0ED;fill-opacity:1;}.icon1 {fill:#F3F0ED;fill-opacity:1;}.icon2 {fill:#F3B340;fill-opacity:1;}.icon3 {fill:#FDCEAC;fill-opacity:1;}.icon3-str {stroke:#FDCEAC;stroke-opacity:1;}</style><g opacity="1" transform="rotate(0 198.9392 116.4963)">
<svg width="156.2087" height="171.4691" x="198.9392" y="116.4963" version="1.1" preserveAspectRatio="none" viewBox="27.119640350341797 19.999919891357422 145.76036071777344 160.0000762939453">
  <g transform="matrix(1 0 0 1 0 0)"><g><path d="M172.88 76.242h-44.606V31.636h44.606v6.705l-22.303 22.302-11.352-11.352 1.371-1.371 9.981 9.981 20.364-20.363v-3.962h-40.727v40.726h40.727v-24.03h1.939v25.97z" data-color="1" class="icon1"></path><path d="M82.22 79.461a21.134 21.134 0 0 1-15.041-6.23A21.135 21.135 0 0 1 60.95 58.19V41.272a21.13 21.13 0 0 1 6.229-15.041A21.135 21.135 0 0 1 82.22 20a21.13 21.13 0 0 1 15.041 6.231 21.129 21.129 0 0 1 6.231 15.041V58.19a21.129 21.129 0 0 1-6.231 15.041 21.129 21.129 0 0 1-15.041 6.23zm0-57.522a19.208 19.208 0 0 0-13.67 5.663 19.209 19.209 0 0 0-5.661 13.669V58.19a19.21 19.21 0 0 0 5.661 13.67 19.211 19.211 0 0 0 13.67 5.662 19.2 19.2 0 0 0 13.67-5.662 19.21 19.21 0 0 0 5.663-13.67V41.272c0-5.163-2.011-10.018-5.663-13.669s-8.505-5.664-13.67-5.664z" data-color="1" class="icon1"></path><path d="M116.057 47.068v1.939H61.919v-1.939h54.138z" data-color="1" class="icon1"></path><path d="M36.472 164.051c-2.436 0-4.831-.985-6.638-2.805-2.472-2.489-3.322-6.008-2.275-9.413l14.312-45.852a21.211 21.211 0 0 1 7.72-10.783 21.193 21.193 0 0 1 12.593-4.143h40.064a21.196 21.196 0 0 1 12.596 4.143 21.201 21.201 0 0 1 7.718 10.78l3.994 12.828a.97.97 0 0 1-1.852.576l-3.992-12.825a19.263 19.263 0 0 0-7.015-9.797 19.281 19.281 0 0 0-11.451-3.766h-40.06a19.285 19.285 0 0 0-11.447 3.766 19.276 19.276 0 0 0-7.017 9.801l-14.31 45.847c-.833 2.703-.161 5.498 1.797 7.471 1.943 1.955 4.733 2.699 7.284 1.936l43.981-13.534a7.499 7.499 0 0 0 4.294-3.087 7.462 7.462 0 0 0 1.178-5.125 7.474 7.474 0 0 0-7.403-6.472h-.013a7.146 7.146 0 0 0-1.96.299l-33.297 9.812a.972.972 0 0 1-1.205-.655.97.97 0 0 1 .655-1.205l33.295-9.812a9.086 9.086 0 0 1 2.5-.379h.017a9.4 9.4 0 0 1 9.331 8.153 9.405 9.405 0 0 1-1.481 6.454 9.416 9.416 0 0 1-5.371 3.877l-43.956 13.526a8.875 8.875 0 0 1-2.586.384z" data-color="1" class="icon1"></path><path d="M51.764 140.364a.968.968 0 0 1-.9-1.329l6.767-16.918a.968.968 0 1 1 1.799.719l-6.767 16.918a.968.968 0 0 1-.899.61z" data-color="1" class="icon1"></path><path d="M134.805 164.065a3.733 3.733 0 0 1-1.687-.419 3.687 3.687 0 0 1-1.767-4.487l3.807-10.776a4.755 4.755 0 0 1 1.742-2.307 4.76 4.76 0 0 1 2.756-.877h4.479a7.91 7.91 0 0 1 3.615.879 7.916 7.916 0 0 1 2.805 2.443 7.892 7.892 0 0 1 1.367 3.46 7.9 7.9 0 0 1-.373 3.701 12.497 12.497 0 0 1-4.593 6.07 12.52 12.52 0 0 1-7.256 2.305l-4.895.008zm4.85-16.926a2.826 2.826 0 0 0-2.668 1.89l-3.807 10.778c-.093.258-.121.54-.083.814.038.273.142.536.301.761.159.229.373.417.617.545.242.125.519.195.795.197l4.888-.008h.002c2.208 0 4.329-.674 6.136-1.949a10.562 10.562 0 0 0 3.883-5.134 5.958 5.958 0 0 0 .282-2.788 5.973 5.973 0 0 0-1.03-2.604 5.944 5.944 0 0 0-2.114-1.841 5.938 5.938 0 0 0-2.723-.663h-4.479z" data-color="1" class="icon1"></path><path d="M56.116 158.277V180h-1.939v-21.723h1.939z" data-color="1" class="icon1"></path><path d="M82.218 106.53a14.409 14.409 0 0 1-10.256-4.248 14.415 14.415 0 0 1-4.248-10.257h1.939c0 3.356 1.307 6.511 3.68 8.885a12.482 12.482 0 0 0 8.884 3.68c3.356 0 6.511-1.307 8.884-3.68a12.486 12.486 0 0 0 3.68-8.885h1.939c0 3.874-1.509 7.516-4.248 10.257a14.397 14.397 0 0 1-10.254 4.248z" data-color="1" class="icon1"></path><path d="M133.653 177.593H84.226l20.986-59.462h49.428l-10.01 28.36-1.829-.644 9.096-25.776h-45.314l-19.615 55.582h45.314l4.545-12.888 1.83.644-5.004 14.184z" data-color="1" class="icon1"></path><path d="M70.273 154.038a.97.97 0 0 1-.93-.695l-4.805-16.309a.97.97 0 1 1 1.86-.55l4.805 16.309a.97.97 0 0 1-.93 1.245z" data-color="1" class="icon1"></path></g></g>
</svg>
</g><g opacity="1" transform="rotate(0 81.7827 327.9654)">
<svg width="390.5217" height="80" x="81.7827" y="327.9654" version="1.1" preserveAspectRatio="none" viewBox="3.08 -27.52 179.64 36.8">
  <g transform="matrix(1 0 0 1 0 0)" class="companyName"><path id="id-D6z1nYkh9" d="M32.76 0L26.56 0Q27.04-0.08 27.60-0.86Q28.16-1.64 28.16-3.76L28.16-3.76L28.16-23.76L17.68 0.44L7.04-23.72L7.04-3.96Q7.04-1.80 7.74-0.94Q8.44-0.08 9 0L9 0L3.08 0Q3.68-0.08 4.40-0.90Q5.12-1.72 5.12-3.96L5.12-3.96L5.12-24Q5.12-25.92 4.44-26.64Q3.76-27.36 3.08-27.52L3.08-27.52L8.48-27.52L18.28-5.16L27.92-27.52L32.76-27.52Q32.24-27.44 31.64-26.68Q31.04-25.92 31.04-23.88L31.04-23.88L31.04-3.60Q31.04-1.60 31.64-0.84Q32.24-0.08 32.76 0L32.76 0Z M37.12-6.84Q37.12-8.92 38.14-10.78Q39.16-12.64 40.96-13.76Q42.76-14.88 44.96-14.88L44.96-14.88Q47.08-14.88 48.80-13.90Q50.52-12.92 51.50-11.24Q52.48-9.56 52.48-7.56L52.48-7.56Q52.48-5.48 51.46-3.62Q50.44-1.76 48.64-0.64Q46.84 0.48 44.64 0.48L44.64 0.48Q42.52 0.48 40.80-0.50Q39.08-1.48 38.10-3.16Q37.12-4.84 37.12-6.84L37.12-6.84ZM49.60-6.40Q49.60-8.08 48.96-9.72Q48.32-11.36 47.16-12.40Q46-13.44 44.48-13.44L44.48-13.44Q42.36-13.44 41.18-11.84Q40-10.24 40-8L40-8Q40-6.32 40.64-4.68Q41.28-3.04 42.44-2Q43.60-0.96 45.12-0.96L45.12-0.96Q47.24-0.96 48.42-2.56Q49.60-4.16 49.60-6.40L49.60-6.40Z M59.84-12.16Q60.76-13.40 62.02-14.14Q63.28-14.88 64.68-14.88L64.68-14.88Q66.84-14.88 68.14-13.50Q69.44-12.12 69.44-9.52L69.44-9.52L69.44-3.96Q69.44-2.28 69.80-1.40Q70.16-0.52 70.60-0.20Q71.04 0.12 71.04 0L71.04 0L65.28 0Q65.28 0.12 65.72-0.18Q66.16-0.48 66.52-1.36Q66.88-2.24 66.88-4L66.88-4L66.88-8.56Q66.88-9.92 66.52-10.72Q66.16-11.52 65.56-12.04L65.56-12.04Q64.64-12.80 63.36-12.80L63.36-12.80Q61.92-12.80 60.88-11.86Q59.84-10.92 59.84-9.24L59.84-9.24L59.84-4Q59.84-2.28 60.20-1.40Q60.56-0.52 61.02-0.20Q61.48 0.12 61.48 0L61.48 0L55.72 0Q55.72 0.12 56.16-0.18Q56.60-0.48 56.94-1.38Q57.28-2.28 57.28-4L57.28-4L57.28-10.04Q57.28-11.72 56.74-12.34Q56.20-12.96 55.52-12.96L55.52-12.96L59.84-14.88L59.84-12.16Z M81.16 0.48Q79 0.48 77.44-0.58Q75.88-1.64 75.06-3.34Q74.24-5.04 74.24-6.96L74.24-6.96Q74.24-9.44 75.22-11.24Q76.20-13.04 77.76-13.96Q79.32-14.88 81-14.88L81-14.88Q83.40-14.88 85.14-13.14Q86.88-11.40 87.04-8.32L87.04-8.32L76.64-8.32Q76.64-6.40 77.36-4.94Q78.08-3.48 79.30-2.70Q80.52-1.92 81.96-1.92L81.96-1.92Q85.72-1.92 87.04-4.32L87.04-4.32Q86.68-2.16 85.08-0.84Q83.48 0.48 81.16 0.48L81.16 0.48ZM80.72-13.56Q79.16-13.56 78.04-12.46Q76.92-11.36 76.68-9.60L76.68-9.60L83.96-9.60Q83.96-11.44 82.98-12.50Q82-13.56 80.72-13.56L80.72-13.56Z M95.40-0.12L95.84-1.20L91.16-11.80Q90.48-13.32 89.86-13.90Q89.24-14.48 88.88-14.56L88.88-14.56L94.72-14.56Q94.36-14.48 94-14.20Q93.64-13.92 93.64-13.20L93.64-13.20Q93.64-12.52 94.04-11.68L94.04-11.68L97.28-4.20L100.16-11.28Q100.44-12 100.44-12.76L100.44-12.76Q100.44-13.48 100.14-13.96Q99.84-14.44 99.16-14.56L99.16-14.56L104.52-14.56Q104.08-14.48 103.38-13.88Q102.68-13.28 102-11.64L102-11.64L96.56 1Q95.48 3.52 94.96 4.98Q94.44 6.44 93.96 8L93.96 8Q93.76 8.76 93.56 9.28L93.56 9.28L89.48 9.28Q90.56 8.76 92.14 6.36Q93.72 3.96 95.40-0.12L95.40-0.12Z M137.40 0L131.20 0Q131.68-0.08 132.24-0.86Q132.80-1.64 132.80-3.76L132.80-3.76L132.80-23.76L122.32 0.44L111.68-23.72L111.68-3.96Q111.68-1.80 112.38-0.94Q113.08-0.08 113.64 0L113.64 0L107.72 0Q108.32-0.08 109.04-0.90Q109.76-1.72 109.76-3.96L109.76-3.96L109.76-24Q109.76-25.92 109.08-26.64Q108.40-27.36 107.72-27.52L107.72-27.52L113.12-27.52L122.92-5.16L132.56-27.52L137.40-27.52Q136.88-27.44 136.28-26.68Q135.68-25.92 135.68-23.88L135.68-23.88L135.68-3.60Q135.68-1.60 136.28-0.84Q136.88-0.08 137.40 0L137.40 0Z M153.80 0.48Q152.52 0.44 151.64-0.20Q150.76-0.84 150.64-1.68L150.64-1.68Q149.92-0.64 148.74-0.08Q147.56 0.48 146.40 0.48L146.40 0.48Q144.56 0.48 143.32-0.58Q142.08-1.64 142.08-3.36L142.08-3.36Q142.08-7.80 150.40-7.80L150.40-7.80L150.40-8.24Q150.40-10.44 149.76-11.48L149.76-11.48Q148.88-12.96 146.88-12.96L146.88-12.96Q145.32-12.96 144.30-12.04Q143.28-11.12 143.28-9.64L143.28-9.64Q143.04-10.04 142.90-10.36Q142.76-10.68 142.76-11.24L142.76-11.24Q142.76-12.68 144.12-13.78Q145.48-14.88 147.68-14.88L147.68-14.88Q150.80-14.88 152.12-12.80L152.12-12.80Q152.56-12.16 152.76-11.20Q152.96-10.24 152.96-8.68L152.96-8.68L152.96-3.92Q152.96-2.68 153.66-2Q154.36-1.32 155.64-1.32L155.64-1.32L156.16-1.32L153.80 0.48ZM150.40-6.60Q147.20-6.60 146.08-5.80Q144.96-5 144.96-3.64L144.96-3.64Q144.96-2.52 145.56-1.88Q146.16-1.24 147.16-1.24L147.16-1.24Q147.92-1.24 148.60-1.60Q149.28-1.96 149.76-2.60L149.76-2.60Q150.40-3.44 150.40-4.88L150.40-4.88L150.40-6.60Z M163.32 0.48Q161.36 0.48 160.36-0.86Q159.36-2.20 159.36-4.08L159.36-4.08L159.36-12.96L157.12-12.96L161.92-18.40L161.92-14.56L167.04-14.56L167.04-12.96L161.92-12.96L161.92-4.52Q161.92-3 162.72-2.22Q163.52-1.44 164.56-1.44L164.56-1.44Q165.36-1.44 166.12-1.92Q166.88-2.40 167.36-3.24L167.36-3.24Q166.76 0.48 163.32 0.48L163.32 0.48Z M176.84 0.48Q174.68 0.48 173.12-0.58Q171.56-1.64 170.74-3.34Q169.92-5.04 169.92-6.96L169.92-6.96Q169.92-9.44 170.90-11.24Q171.88-13.04 173.44-13.96Q175-14.88 176.68-14.88L176.68-14.88Q179.08-14.88 180.82-13.14Q182.56-11.40 182.72-8.32L182.72-8.32L172.32-8.32Q172.32-6.40 173.04-4.94Q173.76-3.48 174.98-2.70Q176.20-1.92 177.64-1.92L177.64-1.92Q181.40-1.92 182.72-4.32L182.72-4.32Q182.36-2.16 180.76-0.84Q179.16 0.48 176.84 0.48L176.84 0.48ZM176.40-13.56Q174.84-13.56 173.72-12.46Q172.60-11.36 172.36-9.60L172.36-9.60L179.64-9.60Q179.64-11.44 178.66-12.50Q177.68-13.56 176.40-13.56L176.40-13.56Z"/></g>
</svg>
</g></svg></svg>